<svg xmlns="http://www.w3.org/2000/svg" viewBox="0 0 24 24" aria-hidden="true">
  <path fill="#f6f1e8" fill-rule="evenodd" d="M12 1.5a10.5 10.5 0 0 0-3.32 20.46c.52.1.72-.23.72-.5v-1.84c-2.94.64-3.56-1.25-3.56-1.25-.48-1.22-1.18-1.55-1.18-1.55-.96-.66.08-.65.08-.65 1.06.08 1.62 1.09 1.62 1.09.94 1.62 2.47 1.15 3.07.88.1-.68.37-1.15.67-1.42-2.35-.27-4.82-1.17-4.82-5.22 0-1.15.41-2.09 1.08-2.83-.1-.27-.47-1.34.1-2.8 0 0 .89-.29 2.89 1.08A10.1 10.1 0 0 1 12 7.55c.9 0 1.8.12 2.65.36 2-1.37 2.88-1.08 2.88-1.08.58 1.46.22 2.53.11 2.8.68.74 1.08 1.68 1.08 2.83 0 4.06-2.47 4.94-4.83 5.21.38.33.72.97.72 1.96v2.91c0 .28.19.61.73.5A10.5 10.5 0 0 0 12 1.5Z" clip-rule="evenodd"/>
</svg>
